:SAMPLES-PER-SECOND 30
:FULLY-SPECIFIED
:DEGREES
306
root  38.4759 37.1121 -17.6135 5.29825 4.76233 2.31934
RightUpLeg  -34.7267 -3.3814 5.21331
RightLeg  53.7088 17.4659 1.65526
RightFoot  -10.3144 0.160067 -5.22289
RightToes  -5.82073e-011 -3.18055e-015 -2.98177e-016
Spine  26.7362 0.0449787 6.11697
Spine1  -3.23427 1.97667 -6.30351
HEad  -24.5464 -9.15002 3.21248
LeftShoulder1  -3.88251e-019 9.70628e-020 -3.87848e-018
LeftArm  -10.9247 32.5598 -51.7133
LeftForeArm  -35.1104 -38.2346 7.19573
LeftHand  -0.0771252 26.3782 0.184745
RightShoulder  6.04261 9.9288 29.017
RightArm  19.0081 -27.787 37.4078
RightForeArm  -23.4031 61.6709 -53.3535
RightHand  -2.78902 7.75966 -24.2111
LeftUpLeg  -35.6755 1.98972 -5.43421
LeftLeg  39.9524 -3.58578 10.0702
LeftFoot  -5.69137 -0.0991034 1.27055
LeftToes  1.2018e-011 -3.94675e-011 -1.33631e-011
307
root  38.6567 38.0613 -17.0398 4.19449 3.71317 1.89128
RightUpLeg  -30.7967 -4.33305 4.72657
RightLeg  50.5087 19.7964 4.4505
RightFoot  -6.51268 0.227189 -3.57715
RightToes  -5.82073e-011 -3.18055e-015 -2.98177e-016
Spine  25.4731 0.180314 5.78045
Spine1  -3.15468 2.10715 -6.30468
HEad  -21.9684 -8.72693 2.56086
LeftShoulder1  -3.88251e-019 9.70628e-020 -3.87848e-018
LeftArm  -11.229 25.2231 -49.9128
LeftForeArm  -47.1909 -39.5211 7.09329
LeftHand  9.23011 43.1711 19.9813
RightShoulder  5.32037 9.37624 26.1029
RightArm  18.3255 -25.9186 39.8245
RightForeArm  -44.4697 65.7099 -69.5244
RightHand  -3.01207 7.54604 -26.4485
LeftUpLeg  -30.0468 2.99713 -5.05909
LeftLeg  34.0235 -2.85401 8.85128
LeftFoot  -4.15652 -0.127943 1.4969
LeftToes  1.2018e-011 -3.94675e-011 -1.33631e-011
308
root  38.8403 38.7736 -16.3737 2.97705 2.64142 1.71943
RightUpLeg  -26.9785 -5.42156 3.8375
RightLeg  47.9449 22.325 6.98209
RightFoot  -3.87465 0.141706 -1.67351
RightToes  -5.82073e-011 -3.18055e-015 -2.98177e-016
Spine  23.6132 0.353071 4.75833
Spine1  -2.58293 2.07424 -5.75155
HEad  -19.3849 -7.77328 2.44635
LeftShoulder1  -3.88251e-019 9.70628e-020 -3.87848e-018
LeftArm  -10.8438 18.3759 -48.2809
LeftForeArm  -69.3754 -39.6208 6.40024
LeftHand  47.1124 65.1508 73.3599
RightShoulder  4.79438 8.80259 24.1545
RightArm  17.3887 -23.74 41.3316
RightForeArm  -66.3424 67.4423 -84.7424
RightHand  -3.43938 8.27329 -28.5114
LeftUpLeg  -24.0044 3.98666 -4.89579
LeftLeg  27.9127 -2.18607 7.57896
LeftFoot  -4.22409 -0.139706 1.65455
LeftToes  1.2018e-011 -3.94675e-011 -1.33631e-011
309
root  39.0199 39.1554 -15.678 1.84961 1.21014 1.7997
RightUpLeg  -24.1817 -6.63903 2.5577
RightLeg  47.6569 24.8695 9.80673
RightFoot  -2.96609 -0.234608 2.67496
RightToes  -5.82073e-011 -3.18055e-015 -2.98177e-016
Spine  21.8942 0.508846 3.17163
Spine1  -2.93643 1.85673 -5.13327
HEad  -16.3928 -6.63943 3.3394
LeftShoulder1  -3.88251e-019 9.70628e-020 -3.87848e-018
LeftArm  -8.51875 12.6726 -46.28
LeftForeArm  -91.2053 -38.9508 5.88274
LeftHand  65.8924 50.6346 112.388
RightShoulder  4.33739 8.25222 22.4437
RightArm  15.467 -22.1318 43.3715
RightForeArm  -79.8492 67.7127 -95.0538
RightHand  -3.91593 9.09609 -30.5434
LeftUpLeg  -18.7436 5.3239 -5.00068
LeftLeg  23.0964 -1.41383 6.72334
LeftFoot  -4.66126 -0.149845 1.86606
LeftToes  1.2018e-011 -3.94675e-011 -1.33631e-011
310
root  39.1588 39.2488 -15.0346 0.461548 -0.867615 2.39173
RightUpLeg  -22.7771 -7.18173 0.660641
RightLeg  50.164 26.4265 12.5459
RightFoot  -3.259 -0.790463 9.1093
RightToes  -5.82073e-011 -3.18055e-015 -2.98177e-016
Spine  21.2239 0.888354 0.484951
Spine1  -4.57592 1.6036 -4.29666
HEad  -13.714 -5.9716 5.16419
LeftShoulder1  -3.88251e-019 9.70628e-020 -3.87848e-018
LeftArm  -5.65958 8.85655 -44.5355
LeftForeArm  -111.258 -38.8681 5.90546
LeftHand  62.3905 41.0249 122.256
RightShoulder  4.09945 8.04856 21.3436
RightArm  12.9428 -21.2866 45.4644
RightForeArm  -84.9652 67.564 -100.089
RightHand  -4.21232 9.57194 -31.7468
LeftUpLeg  -14.7353 7.33054 -5.49183
LeftLeg  21.029 -0.714472 6.47969
LeftFoot  -5.55879 -0.162907 2.24881
LeftToes  1.2018e-011 -3.94675e-011 -1.33631e-011
311
root  39.2421 39.2238 -14.4125 -1.14294 -3.47406 3.47729
RightUpLeg  -22.3283 -6.41236 -1.48944
RightLeg  52.7959 25.7202 12.8171
RightFoot  -3.98026 -1.052 12.9985
RightToes  -5.82073e-011 -3.18055e-015 -2.98177e-016
Spine  20.8375 1.48636 -2.93685
Spine1  -5.64677 1.40202 -3.03567
HEad  -11.9467 -5.45151 6.69455
LeftShoulder1  -3.88251e-019 9.70628e-020 -3.87848e-018
LeftArm  -7.56685 6.93866 -43.7579
LeftForeArm  -122.126 -40.1973 6.43623
LeftHand  53.4945 33.8004 125.243
RightShoulder  4.25284 8.34378 21.7364
RightArm  10.7294 -21.1144 46.3967
RightForeArm  -87.2124 67.3832 -102.924
RightHand  -4.43137 10.0935 -32.2444
LeftUpLeg  -11.2987 8.90663 -6.0319
LeftLeg  20.5759 0.463639 6.4019
LeftFoot  -7.06003 -0.127935 2.0454
LeftToes  1.2018e-011 -3.94675e-011 -1.33631e-011
